<?xml version="1.0" standalone="no"?><!DOCTYPE svg PUBLIC "-//W3C//DTD SVG 1.1//EN" "http://www.w3.org/Graphics/SVG/1.1/DTD/svg11.dtd"><svg t="1734694929919" class="icon" viewBox="0 0 1024 1024" version="1.1" xmlns="http://www.w3.org/2000/svg" p-id="6512" xmlns:xlink="http://www.w3.org/1999/xlink" width="200" height="200"><path d="M768 64 256 64C149.952 64 64 150.016 64 256l0 512c0 105.984 85.952 192 192 192l320 0c40.896 0 80.384-16.384 109.248-45.248l229.504-229.504C943.616 656.384 960 616.896 960 576L960 256C960 150.016 874.048 64 768 64zM192 768l57.408-198.976 144.896 144.896L192 768zM448.512 677.632 282.56 511.616 601.92 192 768 358.016 448.512 677.632zM869.504 643.456l-226.048 227.84C640.832 873.856 640 874.752 640 877.312L640 640l234.048 0C872.32 640 871.424 641.408 869.504 643.456z" p-id="6513"></path></svg>